<svg height="512pt" viewBox="0 0 512 512" width="512pt" xmlns="http://www.w3.org/2000/svg"><path d="m256 138c2.628906 0 5.210938-1.070312 7.070312-2.929688 1.859376-1.859374 2.929688-4.441406 2.929688-7.070312s-1.070312-5.210938-2.929688-7.070312c-1.859374-1.859376-4.441406-2.929688-7.070312-2.929688s-5.210938 1.070312-7.070312 2.929688c-1.859376 1.859374-2.929688 4.441406-2.929688 7.070312s1.070312 5.210938 2.929688 7.070312c1.859374 1.859376 4.441406 2.929688 7.070312 2.929688zm0 0"/><path d="m502 452h-12v-30c0-5.523438-4.476562-10-10-10h-6v-15.832031c0-10.828125-6.605469-20.136719-16-24.113281v-33.722657c0-5.523437-4.476562-10-10-10s-10 4.476563-10 10v31.667969h-20v-142h20v32.355469c0 5.523437 4.476562 10 10 10s10-4.476563 10-10v-34.410157c9.394531-3.976562 16-13.289062 16-24.113281v-15.832031h6c5.523438 0 10-4.476562 10-10v-38h1c4.636719 0 8.660156-3.183594 9.730469-7.695312 1.070312-4.507813-1.101563-9.164063-5.242188-11.242188l-235-118c-2.824219-1.417969-6.152343-1.417969-8.976562 0l-235 118c-4.140625 2.082031-6.3125 6.734375-5.242188 11.242188 1.070313 4.511718 5.09375 7.695312 9.730469 7.695312h1v38c0 5.523438 4.476562 10 10 10h6v15.832031c0 10.824219 6.605469 20.136719 16 24.109375v146.113282c-9.394531 3.976562-16 13.285156-16 24.109374v15.835938h-6c-5.523438 0-10 4.476562-10 10v30h-12c-5.523438 0-10 4.476562-10 10v40c0 5.523438 4.476562 10 10 10h492c5.523438 0 10-4.476562 10-10v-40c0-5.523438-4.476562-10-10-10zm-54.167969-62c3.402344 0 6.167969 2.765625 6.167969 6.167969v15.832031h-52v-15.832031c0-3.402344 2.765625-6.167969 6.167969-6.167969zm-88.5 22v-15.832031c0-10.824219-6.605469-20.136719-16-24.113281v-146.109376c9.394531-3.976562 16-13.289062 16-24.113281v-15.832031h22.667969v15.832031c0 10.824219 6.605469 20.136719 16 24.109375v146.113282c-9.394531 3.976562-16 13.285156-16 24.109374v15.835938zm-114.664062 0v-15.832031c0-10.828125-6.609375-20.136719-16-24.113281v-146.109376c9.390625-3.976562 16-13.289062 16-24.113281v-15.832031h22.667969v15.832031c0 10.824219 6.605468 20.136719 16 24.109375v146.113282c-9.394532 3.976562-16 13.285156-16 24.109374v15.835938zm-114.667969 0v-15.832031c0-10.828125-6.605469-20.136719-16-24.113281v-146.109376c9.394531-3.976562 16-13.289062 16-24.113281v-15.832031h22.667969v15.832031c0 10.824219 6.605469 20.136719 16 24.109375v146.113282c-9.394531 3.976562-16 13.285156-16 24.109374v15.835938zm-56-184h20v142h-20zm114.667969 0h20v142h-20zm36-26.167969c0 3.402344-2.765625 6.167969-6.167969 6.167969h-39.667969c-3.398437 0-6.167969-2.765625-6.167969-6.167969v-15.832031h52v15.832031zm-52 194.335938c0-3.402344 2.765625-6.167969 6.167969-6.167969h39.664062c3.398438 0 6.167969 2.765625 6.167969 6.167969v15.832031h-52zm130.664062-168.167969h20v142h-20zm36-26.167969c0 3.402344-2.765625 6.167969-6.167969 6.167969h-39.664062c-3.398438 0-6.167969-2.765625-6.167969-6.167969v-15.832031h52zm-52 194.335938c0-3.402344 2.765625-6.167969 6.167969-6.167969h39.667969c3.398437 0 6.167969 2.765625 6.167969 6.167969v15.832031h-52v-15.832031zm166.667969-194.335938c0 3.402344-2.765625 6.167969-6.167969 6.167969h-39.667969c-3.398437 0-6.164062-2.765625-6.164062-6.167969v-15.832031h52zm-247.667969-63.832031c5.523438 0 10-4.476562 10-10s-4.476562-10-10-10h-143.132812l192.800781-96.808594 192.800781 96.808594h-139.800781c-5.523438 0-10 4.476562-10 10s4.476562 10 10 10h161v28h-428v-28zm-96.332031 48v15.832031c0 3.402344-2.765625 6.167969-6.167969 6.167969h-39.664062c-3.402344 0-6.167969-2.765625-6.167969-6.167969v-15.832031zm-52 210.167969c0-3.402344 2.765625-6.167969 6.167969-6.167969h39.667969c3.398437 0 6.164062 2.765625 6.164062 6.167969v15.832031h-52zm-16 35.832031h428v20h-428zm450 60h-472v-20h472zm0 0"/><path d="m448 289c-2.628906 0-5.210938 1.070312-7.070312 2.929688-1.859376 1.859374-2.929688 4.441406-2.929688 7.070312s1.070312 5.210938 2.929688 7.070312c1.859374 1.859376 4.441406 2.929688 7.070312 2.929688s5.210938-1.070312 7.070312-2.929688c1.859376-1.859374 2.929688-4.441406 2.929688-7.070312s-1.070312-5.210938-2.929688-7.070312c-1.859374-1.859376-4.441406-2.929688-7.070312-2.929688zm0 0"/></svg>